<?xml version="1.0" encoding="UTF-8" standalone="no"?>
<svg xmlns="http://www.w3.org/2000/svg" height="67.73mm" width="67.73mm" version="1.1" viewBox="0 0 67.73333 67.73333">
 <path d="m0 33.89v-33.87h67.74v67.74h-67.74z"/>
 <path style="fill:#0f0" d="m14.8 12.17v5.557h5.292v5.292h-5.292v5.273l-2.712 0.07546-2.712 0.07546-0.07546 2.712-0.07546 2.712h-5.277v16.41h5.557v-10.85h5.292v10.85h5.292v5.292h11.13l-0.07546-2.712-0.07546-2.712-5.358-0.07131-5.358-0.07184v-5.281h26.99v5.281l-5.358 0.07184-5.358 0.07131-0.07546 2.712-0.07546 2.712h11.15v-5.292h5.292v-10.85h5.292v10.85h5.557v-16.41h-5.273l-0.07546-2.712-0.07546-2.712-2.712-0.07546-2.712-0.07546v-5.27h-5.292v-5.292h5.292v-5.557h-5.557v5.292h-5.292v5.557h-16.41v-5.557h-5.292v-5.292h-2.778zm5.557 16.41h5.292v5.292h-5.292v-2.646zm21.7 0h5.292v5.292h-5.292v-2.646z"/>
</svg>
